<svg id="Capa_1" enable-background="new 0 0 512 512" height="512" viewBox="0 0 512 512" width="512" xmlns="http://www.w3.org/2000/svg"><g><path d="m313.319 362.404h-289.328c-13.25 0-23.991-10.741-23.991-23.99v-190.39c0-29.09 23.582-52.671 52.671-52.671h207.976c29.09 0 52.671 23.582 52.671 52.671v214.38z" fill="#fcf2d0"/><path d="m88.909 95.353h-36.238c-29.089 0-52.671 23.581-52.671 52.671v190.389c0 13.25 10.741 23.991 23.991 23.991h130.257c-63.633-68.833-64.69-197.641-65.339-267.051z" fill="#fae0bd"/><path d="m45.097 362.404h268.222v-33.828h-268.594z" fill="#a0e7e7"/><path d="m45.097 329.829v32.575h-21.106c-13.25 0-23.991-10.741-23.991-23.99v-21.121h32.56c6.924-.001 12.537 5.612 12.537 12.536z" fill="#eda1ab"/><path d="m313.319 362.404h174.52c13.344 0 24.161-10.817 24.161-24.161v-44.217c0-27.66-7.598-54.788-21.966-78.424l-26.406-43.441c-6.046-9.947-16.843-16.019-28.483-16.019h-121.826z" fill="#fcf2d0"/><path d="m313.319 362.404h67.816c-36.41-44.905-39.329-157.35-39.329-206.262h-28.488v206.262z" fill="#fae0bd"/><circle cx="412.66" cy="362.404" fill="#4e5660" r="54.243"/><circle cx="412.66" cy="362.404" fill="#a0e7e7" r="21.493"/><circle cx="138.058" cy="362.404" fill="#4e5660" r="54.243"/><circle cx="138.058" cy="362.404" fill="#a0e7e7" r="21.493"/><path d="m425.404 156.143h-83.597l13.063-40.219c2.372-7.303 9.177-12.248 16.855-12.248h23.761c7.678 0 14.483 4.945 16.855 12.248z" fill="#eda1ab"/><path d="m466.903 329.829v32.575h20.936c13.344 0 24.161-10.817 24.161-24.161v-20.951h-32.56c-6.924 0-12.537 5.613-12.537 12.537z" fill="#eda1ab"/><path d="m398.297 248.364h106.633c-3.625-11.423-8.612-22.427-14.895-32.762l-15.228-25.052h-76.51c-7.135 0-12.919 5.784-12.919 12.919v31.977c0 7.134 5.784 12.918 12.919 12.918z" fill="#a3defe"/><path d="m398.297 248.364h106.633c-3.625-11.423-8.612-22.427-14.895-32.762l-15.228-25.052h-76.51c-7.135 0-12.919 5.784-12.919 12.919v31.977c0 7.134 5.784 12.918 12.919 12.918z" fill="#a3defe"/><path d="m504.929 248.364c-3.625-11.423-8.612-22.427-14.895-32.762l-7.284-11.982-44.744 44.744z" fill="#7acefa"/><path d="m375.991 286.75h-17.575c-4.142 0-7.5-3.358-7.5-7.5s3.358-7.5 7.5-7.5h17.575c4.142 0 7.5 3.358 7.5 7.5s-3.358 7.5-7.5 7.5z" fill="#fae0bd"/><path d="m174.407 170.404v-26.08c0-2.6-2.108-4.707-4.707-4.707h-26.08c-2.6 0-4.707 2.108-4.707 4.707v26.08c0 2.6-2.108 4.707-4.707 4.707h-26.08c-2.6 0-4.707 2.108-4.707 4.707v26.08c0 2.6 2.108 4.707 4.707 4.707h26.08c2.6 0 4.707 2.108 4.707 4.707v26.08c0 2.6 2.107 4.707 4.707 4.707h26.08c2.6 0 4.707-2.107 4.707-4.707v-26.08c0-2.6 2.107-4.707 4.707-4.707h26.08c2.6 0 4.707-2.108 4.707-4.707v-26.08c0-2.6-2.108-4.707-4.707-4.707h-26.08c-2.599 0-4.707-2.108-4.707-4.707z" fill="#eda1ab"/><g fill="#7acefa"><path d="m84.479 282.206h-37.376c-5.783 0-10.472-4.688-10.472-10.472v-16.857c0-5.783 4.688-10.472 10.472-10.472h37.376c5.783 0 10.472 4.688 10.472 10.472v16.857c0 5.783-4.689 10.472-10.472 10.472z"/><path d="m228.84 282.206h37.376c5.783 0 10.472-4.688 10.472-10.472v-16.857c0-5.783-4.688-10.472-10.472-10.472h-37.376c-5.783 0-10.472 4.688-10.472 10.472v16.857c0 5.783 4.689 10.472 10.472 10.472z"/></g></g></svg>