<svg id="Capa_1" enable-background="new 0 0 512 512" height="512" viewBox="0 0 512 512" width="512" xmlns="http://www.w3.org/2000/svg"><g><path d="m151.96 59.196c14.438 14.438 14.438 37.847 0 52.285s-37.847 14.438-52.285 0-27.675-51.083-13.237-65.521 51.084-1.202 65.522 13.236z" fill="#a0e7e7"/><path d="m399.932 494.698c13.015 0 23.002-11.559 21.112-24.436-11.823-80.549-81.212-142.386-165.044-142.386s-153.222 61.837-165.045 142.386c-1.89 12.877 8.097 24.436 21.112 24.436z" fill="#a0e7e7"/><path d="m193.438 340.008c-53.885 21.815-93.78 70.963-102.482 130.253-1.89 12.877 8.097 24.436 21.112 24.436h122.968c-41.042-22.071-56.875-117.211-41.598-154.689z" fill="#8ed2e2"/><g fill="#ffbe9d"><path d="m332.664 327.876c-16.901 63.388-48.522 115.435-76.664 115.435s-59.763-52.048-76.664-115.435z"/><ellipse cx="64.903" cy="215.51" rx="64.902" ry="64.902" transform="matrix(.707 -.707 .707 .707 -133.379 109.015)"/><ellipse cx="447.097" cy="215.51" rx="64.902" ry="64.902" transform="matrix(.707 -.707 .707 .707 -21.437 379.267)"/></g><path d="m453.891 210.833c0 100.579-88.599 170.445-197.891 170.445s-197.891-69.866-197.891-170.445 88.599-182.115 197.891-182.115 197.891 81.536 197.891 182.115z" fill="#ffd3bd"/><g><g fill="#eda1ab"><ellipse cx="163.819" cy="242.596" rx="34.013" ry="27.086"/><ellipse cx="348.181" cy="242.596" rx="34.013" ry="27.086"/></g><g fill="#4e5660"><path d="m199.831 220.622c-4.143 0-7.5-3.357-7.5-7.5 0-4.791-3.898-8.689-8.689-8.689s-8.688 3.898-8.688 8.689c0 4.143-3.357 7.5-7.5 7.5s-7.5-3.357-7.5-7.5c0-13.063 10.627-23.689 23.688-23.689 13.063 0 23.689 10.627 23.689 23.689 0 4.143-3.357 7.5-7.5 7.5z"/><path d="m344.547 220.622c-4.143 0-7.5-3.357-7.5-7.5 0-4.791-3.898-8.689-8.689-8.689s-8.689 3.898-8.689 8.689c0 4.143-3.357 7.5-7.5 7.5-4.142 0-7.5-3.357-7.5-7.5 0-13.063 10.627-23.689 23.689-23.689 13.063 0 23.689 10.627 23.689 23.689 0 4.143-3.358 7.5-7.5 7.5z"/><path d="m256 247.367c-8.749 0-17.068-3.789-22.827-10.395-2.721-3.122-2.396-7.86.727-10.582 3.122-2.721 7.859-2.396 10.582.727 2.908 3.337 7.107 5.251 11.519 5.251s8.61-1.914 11.519-5.251c2.723-3.123 7.459-3.448 10.582-.727 3.123 2.722 3.447 7.46.727 10.582-5.761 6.606-14.08 10.395-22.829 10.395z"/></g></g><path d="m256 17.302c-119.071 0-211.501 91.297-209.315 196.691.244 11.771 12.955 19.16 23.209 13.374 39.323-22.191 86.854-72.033 104.409-138.095h163.394c17.556 66.062 65.088 115.904 104.411 138.095 10.254 5.787 22.964-1.603 23.209-13.375 2.196-105.533-90.453-196.69-209.317-196.69z" fill="#cb9d82"/><path d="m256 160.986c110.47 0 150.828-23.241 185.411-39.843-34.688-60.936-103.787-103.841-185.411-103.841s-150.723 42.905-185.411 103.841c34.583 16.602 74.941 39.843 185.411 39.843z" fill="#a0e7e7"/><path d="m70.588 121.143c26.439 12.693 56.256 29.264 118.194 36.366-30.967-29.846-23.236-97.526-2.364-129.259-50.453 16.465-91.562 50.264-115.83 92.893z" fill="#8ed2e2"/><path d="m277.321 93.079h-13.821v-13.821c0-4.143-3.357-7.5-7.5-7.5s-7.5 3.357-7.5 7.5v13.821h-13.821c-4.143 0-7.5 3.357-7.5 7.5s3.357 7.5 7.5 7.5h13.821v13.821c0 4.143 3.357 7.5 7.5 7.5s7.5-3.357 7.5-7.5v-13.821h13.821c4.143 0 7.5-3.357 7.5-7.5s-3.357-7.5-7.5-7.5z" fill="#fff"/><path d="m367.993 98.061c15.365-2.655 31.175-9.286 44.148-15.939-3.669-3.808-7.502-7.483-11.486-11.019-10.87 5.261-23.294 10.117-35.215 12.176-4.082.705-6.819 4.586-6.114 8.667.704 4.077 4.576 6.819 8.667 6.115z" fill="#8ed2e2"/><path d="m162.289 120.914c-12.564-2.618-31.922-9.562-37.066-11.823-3.792-1.667-5.515-6.092-3.847-9.884 1.667-3.792 6.093-5.516 9.884-3.847 4.834 2.125 23.193 8.6 34.089 10.87 4.055.845 6.657 4.816 5.811 8.872-.848 4.077-4.842 6.657-8.871 5.812z" fill="#a0e7e7"/></g></svg>