<svg id="Capa_1" enable-background="new 0 0 512 512" height="512" viewBox="0 0 512 512" width="512" xmlns="http://www.w3.org/2000/svg"><g><ellipse cx="143.703" cy="109.685" fill="#3a4351" rx="62.068" ry="57.227"/><path d="m382.072 512c11.4 0 20.148-10.124 18.492-21.404-10.355-70.554-71.134-124.717-144.564-124.717s-134.209 54.163-144.565 124.717c-1.655 11.28 7.093 21.404 18.493 21.404z" fill="#a0e7e7"/><path d="m201.201 376.505c-47.198 19.108-82.143 62.157-89.766 114.091-1.655 11.28 7.093 21.404 18.493 21.404h107.709c-35.949-19.333-49.817-102.668-36.436-135.495z" fill="#8ed2e2"/><path d="m248.5 412.654h15v99.346h-15z" fill="#8ed2e2"/><path d="m256 412.654-67.014 42.467c-7.916 5.017-18.405.566-20.297-8.613l-15.738-76.33z" fill="#fcf2d0"/><path d="m256 412.654 67.014 42.467c7.916 5.017 18.405.566 20.297-8.613l15.738-76.33z" fill="#fcf2d0"/><ellipse cx="77.727" cy="254.979" fill="#b7856b" rx="56.849" ry="56.849" transform="matrix(.548 -.836 .836 .548 -178.114 180.139)"/><path d="m80.467 294.656 12.103-4.304c3.939-1.401 8.056 1.591 7.941 5.77l-.353 12.84c-.038 1.368.398 2.707 1.232 3.792l7.833 10.181c2.549 3.313.977 8.154-3.033 9.336l-12.321 3.632c-1.313.387-2.452 1.215-3.226 2.344l-7.262 10.596c-2.364 3.449-7.453 3.449-9.816 0l-7.262-10.596c-.774-1.129-1.913-1.957-3.226-2.344l-12.321-3.632c-4.01-1.182-5.583-6.022-3.033-9.336l7.833-10.181c.835-1.085 1.27-2.424 1.232-3.792l-.353-12.84c-.115-4.179 4.002-7.171 7.941-5.77l12.103 4.304c1.29.458 2.699.458 3.988 0z" fill="#a0e7e7"/><ellipse cx="434.273" cy="254.979" fill="#b7856b" rx="56.849" ry="56.849" transform="matrix(.847 -.532 .532 .847 -69.099 269.961)"/><path d="m431.533 294.656-12.103-4.304c-3.939-1.401-8.056 1.591-7.941 5.77l.353 12.84c.038 1.368-.398 2.707-1.232 3.792l-7.833 10.181c-2.549 3.313-.977 8.154 3.033 9.336l12.321 3.632c1.313.387 2.452 1.215 3.226 2.344l7.262 10.596c2.363 3.449 7.453 3.449 9.816 0l7.262-10.596c.774-1.129 1.913-1.957 3.226-2.344l12.321-3.632c4.01-1.182 5.583-6.022 3.033-9.336l-7.833-10.181c-.835-1.085-1.27-2.424-1.232-3.792l.353-12.84c.115-4.179-4.002-7.171-7.941-5.77l-12.103 4.304c-1.29.458-2.699.458-3.988 0z" fill="#a0e7e7"/><path d="m429.335 263.359c0 88.099-77.605 149.295-173.335 149.295s-173.335-61.196-173.335-149.295 77.605-159.517 173.335-159.517 173.335 71.418 173.335 159.517z" fill="#cb9d82"/><path d="m256 96.344c94.984-33.307 179.074 50.963 186.222 114.902 1.22 10.908-8.099 19.962-18.964 18.411-46.654-6.66-126.405-41.618-161.771-68.91-3.239-2.5-7.734-2.5-10.973 0-35.367 27.292-115.118 62.25-161.771 68.91-10.866 1.551-20.184-7.503-18.964-18.411 7.147-63.939 91.237-148.209 186.221-114.902z" fill="#4e5660"/><path d="m338.078 113.874 17.321-55.809c3.812-12.283-.816-25.691-11.524-32.814-21.062-14.01-52.097-25.251-87.875-25.251s-66.813 11.241-87.875 25.251c-10.709 7.123-15.337 20.531-11.524 32.814l17.321 55.809c1.974 6.359 7.857 10.693 14.515 10.693h135.125c6.659 0 12.542-4.334 14.516-10.693z" fill="#a0e7e7"/><path d="m209.569 6.477c-16.124 4.612-30.205 11.298-41.444 18.773-10.709 7.123-15.337 20.531-11.524 32.814l17.321 55.809c1.974 6.359 7.857 10.693 14.515 10.693h47.309c-27.476-24.476-43.879-100.107-26.177-118.089z" fill="#8ed2e2"/><path d="m276.697 56.81h-13.197v-13.196c0-4.142-3.358-7.5-7.5-7.5s-7.5 3.358-7.5 7.5v13.196h-13.197c-4.142 0-7.5 3.358-7.5 7.5s3.358 7.5 7.5 7.5h13.197v13.197c0 4.142 3.358 7.5 7.5 7.5s7.5-3.358 7.5-7.5v-13.197h13.197c4.142 0 7.5-3.358 7.5-7.5s-3.358-7.5-7.5-7.5z" fill="#fff"/><g><g fill="#fff"><ellipse cx="175.258" cy="291.181" rx="29.792" ry="23.725"/><ellipse cx="336.742" cy="291.181" rx="29.792" ry="23.725"/></g><g fill="#4e5660"><path d="m206.801 272.864c-4.142 0-7.5-3.358-7.5-7.5 0-3.684-2.997-6.681-6.681-6.681s-6.68 2.997-6.68 6.681c0 4.142-3.358 7.5-7.5 7.5s-7.5-3.358-7.5-7.5c0-11.955 9.726-21.681 21.68-21.681s21.681 9.726 21.681 21.681c0 4.142-3.358 7.5-7.5 7.5z"/><path d="m333.56 272.864c-4.142 0-7.5-3.358-7.5-7.5 0-3.684-2.997-6.681-6.68-6.681-3.684 0-6.681 2.997-6.681 6.681 0 4.142-3.358 7.5-7.5 7.5s-7.5-3.358-7.5-7.5c0-11.955 9.726-21.681 21.681-21.681s21.68 9.726 21.68 21.681c0 4.142-3.358 7.5-7.5 7.5z"/><path d="m256 296.29c-7.932 0-15.476-3.435-20.696-9.425-2.722-3.122-2.396-7.86.726-10.581 3.122-2.722 7.86-2.397 10.581.726 2.371 2.72 5.793 4.28 9.388 4.28s7.017-1.56 9.388-4.28c2.722-3.123 7.459-3.448 10.581-.726 3.123 2.721 3.448 7.459.726 10.581-5.218 5.99-12.762 9.425-20.694 9.425z"/></g></g></g></svg>