<svg id="Capa_1" enable-background="new 0 0 512 512" height="512" viewBox="0 0 512 512" width="512" xmlns="http://www.w3.org/2000/svg"><g><path d="m469.616 512h-427.232c-18.873 0-32.659-17.83-27.908-36.095l11.748-45.167c6.174-23.737 27.604-40.307 52.132-40.307h355.289c24.527 0 45.957 16.569 52.132 40.307l11.748 45.167c4.75 18.265-9.036 36.095-27.909 36.095z" fill="#f6ee86"/><path d="m161.055 390.431h-82.7c-24.527 0-45.957 16.569-52.132 40.307l-11.748 45.167c-4.75 18.265 9.036 36.095 27.909 36.095h145.514c-30.18-25.323-37.212-98.82-26.843-121.569z" fill="#f2d98d"/><path d="m307.707 147.324h-103.414c-58.335 0-106.878 44.827-111.513 102.978l-11.17 140.13h348.78l-11.17-140.13c-4.635-58.151-53.178-102.978-111.513-102.978z" fill="#eda1ab"/><path d="m170.785 152.442c-42.464 13.324-74.296 51.323-78.005 97.859l-11.17 140.13h144.895c-56.865-50.124-74.582-171.383-55.72-237.989z" fill="#e8899e"/><path d="m279.677 238.921v-34.794c0-3.468-2.812-6.28-6.28-6.28h-34.793c-3.468 0-6.28 2.812-6.28 6.28v34.794c0 3.468-2.812 6.28-6.28 6.28h-34.794c-3.468 0-6.28 2.812-6.28 6.28v34.793c0 3.468 2.812 6.28 6.28 6.28h34.794c3.468 0 6.28 2.812 6.28 6.28v34.794c0 3.468 2.812 6.28 6.28 6.28h34.793c3.468 0 6.28-2.812 6.28-6.28v-34.794c0-3.468 2.812-6.28 6.28-6.28h34.793c3.468 0 6.28-2.812 6.28-6.28v-34.793c0-3.468-2.812-6.28-6.28-6.28h-34.793c-3.468 0-6.28-2.812-6.28-6.28z" fill="#fff"/><g fill="#e8899e"><path d="m256 84.893c-11.048 0-20.004-8.956-20.004-20.004v-44.885c0-11.048 8.956-20.004 20.004-20.004s20.004 8.956 20.004 20.004v44.886c0 11.047-8.956 20.003-20.004 20.003z"/><path d="m75.541 125.034-34.665-34.664c-7.812-7.812-7.812-20.477-.001-28.289 7.812-7.813 20.477-7.812 28.29-.001l34.664 34.664c7.812 7.812 7.812 20.478.001 28.289-7.811 7.813-20.476 7.813-28.289.001z"/><path d="m408.17 125.034c-7.812-7.812-7.812-20.478.001-28.289l34.664-34.664c7.812-7.812 20.477-7.813 28.29.001 7.812 7.812 7.812 20.477-.001 28.289l-34.664 34.664c-7.812 7.809-20.477 7.813-28.29-.001z"/></g><g><g><ellipse cx="169.623" cy="472.632" fill="#eda1ab" rx="31.872" ry="25.381"/><ellipse cx="342.377" cy="472.632" fill="#eda1ab" rx="31.872" ry="25.381"/><ellipse cx="256" cy="453.13" fill="#4e5660" rx="16.918" ry="18.932"/></g><g fill="#4e5660"><path d="m174.951 449.504c-4.142 0-7.5-3.358-7.5-7.5v-12.362c0-4.142 3.358-7.5 7.5-7.5s7.5 3.358 7.5 7.5v12.362c0 4.142-3.358 7.5-7.5 7.5z"/><path d="m337.049 449.504c-4.142 0-7.5-3.358-7.5-7.5v-12.362c0-4.142 3.358-7.5 7.5-7.5s7.5 3.358 7.5 7.5v12.362c0 4.142-3.358 7.5-7.5 7.5z"/></g></g></g></svg>