<svg id="Capa_1" enable-background="new 0 0 512 512" height="512" viewBox="0 0 512 512" width="512" xmlns="http://www.w3.org/2000/svg"><g><path d="m361.701 188.682h-211.402c-16.596 0-30.049-13.453-30.049-30.049v-27.664c0-16.595 13.453-30.049 30.049-30.049h211.402c16.595 0 30.049 13.453 30.049 30.049v27.664c0 16.596-13.453 30.049-30.049 30.049z" fill="#7acefa"/><path d="m327.275 0h-142.55c-18.088 0-31.686 16.497-28.232 34.252l12.967 66.668h173.081l12.967-66.668c3.453-17.755-10.146-34.252-28.233-34.252z" fill="#eda1ab"/><path d="m222.467 0h-37.742c-18.088 0-31.686 16.497-28.232 34.252l12.967 66.668h71.116c-15.2-19.683-21.709-76.618-18.109-100.92z" fill="#e8899e"/><path d="m342.219 188.682h-172.438v237.099c0 47.617 38.601 86.219 86.219 86.219 47.618 0 86.219-38.602 86.219-86.219z" fill="#fcf2d0"/><path d="m256 512c19.704 0 37.853-6.624 52.373-17.747-100.451-40.712-104.563-184.297-104.685-305.571h-33.907v237.099c0 47.617 38.601 86.219 86.219 86.219z" fill="#fae0bd"/><path d="m256 288.397v19.935c41.402-34.058 86.219-25.421 86.219-2.116v-117.534h-172.438v78.489h64.993c11.723 0 21.226 9.503 21.226 21.226z" fill="#a3defe"/><path d="m203.688 188.682h-33.907v78.489h35.38c-1.244-26.375-1.447-52.926-1.473-78.489z" fill="#7acefa"/><path d="m342.219 306.216c0 27.207-51.577 19.247-86.219 2.116 41.402-34.058 86.219-25.421 86.219-2.116z" fill="#e8899e"/><path d="m256 308.332v37.867c0 11.723-9.503 21.226-21.226 21.226h-64.993v58.356c0 47.617 38.601 86.219 86.219 86.219s86.219-38.602 86.219-86.219v-119.565c0 27.207-51.577 19.247-86.219 2.116z" fill="#eda1ab"/><path d="m256 512c19.704 0 37.853-6.624 52.373-17.747-51.49-20.869-77.68-68.755-90.978-126.829h-47.614v58.356c0 47.618 38.601 86.22 86.219 86.22z" fill="#e8899e"/><path d="m169.781 309.798h42.117c4.143 0 7.5 3.358 7.5 7.5s-3.357 7.5-7.5 7.5h-42.117z" fill="#4e5660"/></g></svg>